#N canvas 269 43 830 802 12;
#N canvas 0 0 450 300 (subpatch) 0;
#X array E02-signal 882 float 0;
#X coords 0 5 882 -5 200 130 1;
#X restore 509 321 graph;
#X obj 48 623 hip~ 5;
#N canvas 0 0 450 300 (subpatch) 0;
#X array E02-spectrum 128 float 0;
#X coords 0 4300 127 -40 257 130 1;
#X restore 463 506 graph;
#N canvas 45 83 558 569 fft 1;
#X obj 19 61 inlet~;
#X obj 95 214 inlet;
#X obj 29 92 rfft~;
#X obj 29 125 *~;
#X obj 60 125 *~;
#X obj 29 155 sqrt~;
#X obj 332 109 block~ 4096 1;
#X obj 29 181 biquad~ 0 0 0 0 1;
#X text 93 93 Fourier series;
#X text 98 146 magnitude;
#X text 96 131 calculate;
#X text 21 3 This subpatch computes the spectrum of the incoming signal
with a (rectangular windowed) FFT. FFTs aren't properly introduced
until much later.;
#X text 83 61 signal to analyze;
#X text 192 166 delay two samples;
#X text 191 182 for better graphing;
#X obj 16 425 samplerate~;
#X obj 16 402 bng 18 250 50 0 empty empty empty 0 -6 0 8 -262144 -1
-1;
#X floatatom 16 472 5 0 0 0 - - -, f 5;
#X obj 16 448 / 256;
#X obj 16 378 loadbang;
#X floatatom 16 541 5 0 0 0 - - -, f 5;
#X obj 24 494 s fundamental;
#X obj 16 517 ftom;
#X text 14 319 At load time \, calculate a good choice of fundamental
frequency for showing spectra: the 16th bin in a 4096-point spectrum
\, so SR*16/4096 or SR/256.;
#X text 145 216 "bang" into this inlet to graph it;
#X floatatom 191 480 5 0 0 0 - - -, f 5;
#X obj 191 456 / 4096;
#X text 187 425 One bin is SR/4096:;
#X text 72 540 <-just out of curiosity \, here's the fundamental pitch
;
#X obj 191 502 s freq-step;
#X obj 95 248 tabwrite~ E02-spectrum;
#X obj 20 281 tabwrite~ E02-signal;
#X connect 0 0 2 0;
#X connect 0 0 31 0;
#X connect 1 0 30 0;
#X connect 1 0 31 0;
#X connect 2 0 3 0;
#X connect 2 0 3 1;
#X connect 2 1 4 0;
#X connect 2 1 4 1;
#X connect 3 0 5 0;
#X connect 4 0 5 0;
#X connect 5 0 7 0;
#X connect 7 0 30 0;
#X connect 15 0 18 0;
#X connect 15 0 26 0;
#X connect 16 0 15 0;
#X connect 17 0 21 0;
#X connect 17 0 22 0;
#X connect 18 0 17 0;
#X connect 19 0 16 0;
#X connect 22 0 20 0;
#X connect 25 0 29 0;
#X connect 26 0 25 0;
#X restore 56 596 pd fft;
#X text 509 453 ---- 0.02 seconds ----;
#X obj 117 597 bng 18 250 50 0 empty empty empty 0 -6 0 8 -262144 -1
-1;
#X obj 48 663 output~;
#X text 494 639 1;
#X text 528 639 2;
#X text 560 639 3;
#X text 592 639 4;
#X text 625 639 5;
#X text 655 639 6;
#X text 686 639 7;
#X text 462 639 0;
#X text 498 658 -- partial number --;
#X text 711 375 0;
#X obj 51 347 osc~;
#X obj 72 372 tgl 18 0 empty empty empty 0 -6 0 8 -262144 -1 -1 0 1
;
#X obj 50 397 *~;
#X obj 94 347 osc~;
#X obj 115 372 tgl 18 0 empty empty empty 0 -6 0 8 -262144 -1 -1 0
1;
#X obj 93 397 *~;
#X obj 137 347 osc~;
#X obj 158 372 tgl 18 0 empty empty empty 0 -6 0 8 -262144 -1 -1 0
1;
#X obj 136 397 *~;
#X obj 180 347 osc~;
#X obj 201 372 tgl 18 0 empty empty empty 0 -6 0 8 -262144 -1 -1 0
1;
#X obj 179 397 *~;
#X obj 223 347 osc~;
#X obj 244 372 tgl 18 0 empty empty empty 0 -6 0 8 -262144 -1 -1 0
1;
#X obj 222 397 *~;
#X obj 266 347 osc~;
#X obj 287 372 tgl 18 0 empty empty empty 0 -6 0 8 -262144 -1 -1 0
1;
#X obj 265 397 *~;
#X text 315 371 <-- On/Off;
#X text 573 301 WAVEFORM;
#X text 556 484 SPECTRUM;
#X text 723 622 0;
#X text 721 501 1;
#X text 722 560 0.5;
#X text 711 315 5;
#X text 712 435 -5;
#X obj 49 492 *~;
#X text 333 355 partials;
#X obj 187 523 osc~;
#X floatatom 187 463 3 0 200 0 - - -, f 3;
#X obj 187 492 *;
#X obj 220 492 r freq-step;
#X text 259 430 modulation;
#X text 255 445 frequency in;
#X text 218 462 <-- "steps" of f/16;
#X obj 117 552 tgl 18 0 empty empty empty 0 -6 0 8 -262144 -1 -1 0
1;
#X text 140 596 <-- graph once;
#X text 140 551 <-- graph repeatedly;
#X floatatom 88 281 5 0 0 0 - - -, f 5;
#X floatatom 133 281 5 0 0 0 - - -, f 5;
#X obj 117 574 metro 100;
#X floatatom 178 281 5 0 0 0 - - -, f 5;
#X floatatom 220 281 5 0 0 0 - - -, f 5;
#X floatatom 261 282 5 0 0 0 - - -, f 5;
#X floatatom 45 280 5 0 0 0 - - -, f 5;
#X text 307 10 Capsule Frequency Editor;
#X obj 54 134 vsl 15 128 30 200 0 0 empty empty empty 0 -9 0 10 -262144
-1 -1 0 1;
#X obj 51 324 * 1;
#X obj 144 135 vsl 15 128 30 200 0 0 empty empty empty 0 -9 0 10 -262144
-1 -1 0 1;
#X obj 188 135 vsl 15 128 30 200 0 0 empty empty empty 0 -9 0 10 -262144
-1 -1 0 1;
#X obj 228 135 vsl 15 128 30 200 0 0 empty empty empty 0 -9 0 10 -262144
-1 -1 0 1;
#X obj 267 137 vsl 15 128 30 200 0 0 empty empty empty 0 -9 0 10 -262144
-1 -1 0 1;
#X obj 100 134 vsl 15 128 30 200 0 0 empty empty empty 0 -9 0 10 -262144
-1 -1 0 1;
#X obj 94 324 * 1.1;
#X obj 137 324 * 1.2;
#X obj 180 324 * 1.3;
#X obj 223 324 * 1.4;
#X obj 71 94 hsl 200 15 30 200 0 0 empty empty empty -2 -8 0 10 -262144
-1 -1 0 1;
#X obj 266 324 * 1.5;
#X connect 1 0 6 0;
#X connect 1 0 6 1;
#X connect 5 0 3 1;
#X connect 17 0 19 0;
#X connect 18 0 19 1;
#X connect 19 0 43 0;
#X connect 20 0 22 0;
#X connect 21 0 22 1;
#X connect 22 0 43 0;
#X connect 23 0 25 0;
#X connect 24 0 25 1;
#X connect 25 0 43 0;
#X connect 26 0 28 0;
#X connect 27 0 28 1;
#X connect 28 0 43 0;
#X connect 29 0 31 0;
#X connect 30 0 31 1;
#X connect 31 0 43 0;
#X connect 32 0 34 0;
#X connect 33 0 34 1;
#X connect 34 0 43 0;
#X connect 43 0 3 0;
#X connect 43 0 1 0;
#X connect 45 0 43 1;
#X connect 46 0 47 0;
#X connect 47 0 45 0;
#X connect 48 0 47 1;
#X connect 52 0 57 0;
#X connect 55 0 70 0;
#X connect 56 0 71 0;
#X connect 57 0 5 0;
#X connect 58 0 72 0;
#X connect 59 0 73 0;
#X connect 60 0 75 0;
#X connect 61 0 64 0;
#X connect 63 0 61 0;
#X connect 64 0 17 0;
#X connect 65 0 56 0;
#X connect 66 0 58 0;
#X connect 67 0 59 0;
#X connect 68 0 60 0;
#X connect 69 0 55 0;
#X connect 70 0 20 0;
#X connect 71 0 23 0;
#X connect 72 0 26 0;
#X connect 73 0 29 0;
#X connect 74 0 63 0;
#X connect 74 0 69 0;
#X connect 74 0 65 0;
#X connect 74 0 66 0;
#X connect 74 0 67 0;
#X connect 74 0 68 0;
#X connect 75 0 32 0;
#X coords 0 0 1 1 85 60 0;
